<svg id="Ebene_1" data-name="Ebene 1" xmlns="http://www.w3.org/2000/svg" viewBox="0 0 677.33 280.2"><defs><style>.cls-1{fill:#1d1e1c;}.cls-2{fill:#8c1559;}.cls-3{fill:#55113a;}</style></defs><title>EFS_Logo_bunt</title><path class="cls-1" d="M665.9,243.33A105.61,105.61,0,0,0,640.46,236q-14.09-2.35-26.29-4.13a141.48,141.48,0,0,1-20-4.14q-7.73-2.34-6.38-7.48a8.9,8.9,0,0,1,5.23-5.82,39.13,39.13,0,0,1,9.92-3,86.27,86.27,0,0,1,11.93-1.23q6.24-.23,11.19-.22A249.52,249.52,0,0,1,659.42,212a229.77,229.77,0,0,1,23.63,4.42l8.44-39.73q-13.14-1.75-27.3-2.91-18-1.45-35.65-1.46-18.57,0-38.71,1.91A190.85,190.85,0,0,0,552,181.52a95.53,95.53,0,0,0-30.62,15.31,46.8,46.8,0,0,0-17.2,26q-3,11.41-.1,19.23a30.67,30.67,0,0,0,9.38,13.19,48.59,48.59,0,0,0,15.87,8.49,176.28,176.28,0,0,0,19.5,5.26q10.11,2.11,20,3.46t17.33,2.91a47.9,47.9,0,0,1,11.84,3.8c2.91,1.49,4,3.57,3.31,6.26-.51,1.94-2,3.57-4.38,4.91a36.9,36.9,0,0,1-9.08,3.36,78.9,78.9,0,0,1-12.25,1.9q-6.81.56-14.23.56A276.35,276.35,0,0,1,524,293.63a198.22,198.22,0,0,1-27-5.51l-8.44,39.77Q505.8,330.55,522,332q20.57,1.79,44.39,1.79a308.46,308.46,0,0,0,37.27-2.35,171.63,171.63,0,0,0,36-8.16,94.46,94.46,0,0,0,29.1-16,48.42,48.42,0,0,0,16.52-25.82q3.93-15-2-24T665.9,243.33" transform="translate(-96.53 -140.8)"/><path class="cls-1" d="M274.78,290H182l4-19.52h92.88l8.25-38.71H194.14l4-18.51h92.95l5.2-24.37A150.05,150.05,0,0,1,300,174.26H154.42c-24.9,0-26.25,6.73-30.62,26.92L96.53,329.08H266.45Z" transform="translate(-96.53 -140.8)"/><path class="cls-1" d="M481.52,231H388.15l4-18.51h93.28l8.3-39s0-.05,0-.08H348.44c-24.91,0-26.25,6.73-30.63,26.92l-27.26,127.9h77.07l12.45-58.57h93.2Z" transform="translate(-96.53 -140.8)"/><path class="cls-2" d="M723.44,153.07a165.57,165.57,0,0,1-196.7,219.34,177.54,177.54,0,0,0,220-231.61Z" transform="translate(-96.53 -140.8)"/><path class="cls-3" d="M771.09,188.64A185.73,185.73,0,0,1,492,370.15a72,72,0,0,1-10.8-7.35l-6.62,31.25c1.85,1.07,3.7,2.12,5.57,3.13,74.36,40.12,169.1,29.66,233-32.23a199,199,0,0,0,57.86-176.31" transform="translate(-96.53 -140.8)"/></svg>